<svg width="22" height="22" viewBox="0 0 22 22" fill="none" xmlns="http://www.w3.org/2000/svg">
<path d="M22 11C22 17.0751 17.0751 22 11 22C4.92487 22 0 17.0751 0 11C0 4.92487 4.92487 0 11 0C17.0751 0 22 4.92487 22 11Z" fill="white"/>
<path fill-rule="evenodd" clip-rule="evenodd" d="M11 20.5C16.2467 20.5 20.5 16.2467 20.5 11C20.5 5.75329 16.2467 1.5 11 1.5C5.75329 1.5 1.5 5.75329 1.5 11C1.5 16.2467 5.75329 20.5 11 20.5ZM11 22C17.0751 22 22 17.0751 22 11C22 4.92487 17.0751 0 11 0C4.92487 0 0 4.92487 0 11C0 17.0751 4.92487 22 11 22Z" fill="#D9D9D9"/>
<path fill-rule="evenodd" clip-rule="evenodd" d="M11 20.5C16.2467 20.5 20.5 16.2467 20.5 11C20.5 5.75329 16.2467 1.5 11 1.5C5.75329 1.5 1.5 5.75329 1.5 11C1.5 16.2467 5.75329 20.5 11 20.5ZM11 22C17.0751 22 22 17.0751 22 11C22 4.92487 17.0751 0 11 0C4.92487 0 0 4.92487 0 11C0 17.0751 4.92487 22 11 22Z" fill="url(#paint0_linear_2838_30509)"/>
<path d="M8.09961 6.58878H10.9796V8.41278H11.0276C11.3476 7.74078 11.8036 7.22078 12.3956 6.85278C12.9876 6.48478 13.6676 6.30078 14.4356 6.30078C14.6116 6.30078 14.7796 6.31678 14.9396 6.34878C15.1156 6.38078 15.2916 6.42078 15.4676 6.46878V9.25278C15.2276 9.18878 14.9876 9.14078 14.7476 9.10878C14.5236 9.06078 14.2996 9.03678 14.0756 9.03678C13.4036 9.03678 12.8596 9.16478 12.4436 9.42078C12.0436 9.66078 11.7316 9.94078 11.5076 10.2608C11.2996 10.5808 11.1556 10.9008 11.0756 11.2208C11.0116 11.5408 10.9796 11.7808 10.9796 11.9408V16.1088H8.09961V6.58878Z" fill="url(#paint1_linear_2838_30509)"/>
<defs>
<linearGradient id="paint0_linear_2838_30509" x1="-1.97292" y1="8.05593" x2="7.31893" y2="24.0571" gradientUnits="userSpaceOnUse">
<stop stop-color="#97B8FF"/>
<stop offset="1" stop-color="#879BFF"/>
</linearGradient>
<linearGradient id="paint1_linear_2838_30509" x1="10.5" y1="15.5" x2="2.88947" y2="11.3324" gradientUnits="userSpaceOnUse">
<stop stop-color="#597BED"/>
<stop offset="1" stop-color="#9AB8FF"/>
</linearGradient>
</defs>
</svg>
